<svg xmlns="http://www.w3.org/2000/svg" width="1858.568" height="181.954" viewBox="0 0 1858.568 181.954">
  <g id="Group_294" data-name="Group 294" transform="translate(-30.812 -75.364)">
    <g id="Group_292" data-name="Group 292" transform="translate(0 -5.354)">
      <g id="Group_291" data-name="Group 291" transform="translate(38.074 174.732)">
        <path id="Path_17" data-name="Path 17" d="M65.639,184.3H74.8L85.452,226.27h.862L97.041,175.7h5.326L90.385,230.491H81.457L70.573,188.2h-.784L58.983,230.491H50.055L38.074,175.7H43.4l10.806,50.57h.783Z" transform="translate(-38.074 -174.824)" fill="#b8b8b8" stroke="#b8b8b8" stroke-width="1"/>
        <path id="Path_18" data-name="Path 18" d="M159.782,198.732l-3.211-3.265V175.876h5.56v54.791h-5.56V206.934l3.211-3.265h-34.3l3.132,3.186v23.812h-5.56V175.876h5.56v19.591l-3.132,3.265Z" transform="translate(-46.148 -174.841)" fill="#b8b8b8" stroke="#b8b8b8" stroke-width="1"/>
        <path id="Path_19" data-name="Path 19" d="M216.577,217.2H190.5l-4.855,13.379h-5.559l20.282-54.791h6.5l20.283,54.791h-5.8Zm-13.391-35.518L191.2,215.208l4.777-2.867h15.036l4.777,2.867-11.981-33.527Z" transform="translate(-51.566 -174.832)" fill="#b8b8b8" stroke="#b8b8b8" stroke-width="1"/>
        <path id="Path_20" data-name="Path 20" d="M231.921,175.788h36.1v4.778H256.667l-5.246-1.035,1.331,3.743v47.3h-5.56V183.354l1.331-3.823-5.168,1.035H231.921Z" transform="translate(-56.491 -174.832)" fill="#b8b8b8" stroke="#b8b8b8" stroke-width="1"/>
        <path id="Path_21" data-name="Path 21" d="M343.539,184.3H352.7l10.65,41.969h.862l10.729-50.57h5.325l-11.981,54.791h-8.928L348.473,188.2h-.783l-10.807,42.287h-8.928L315.974,175.7H321.3l10.807,50.57h.783Z" transform="translate(-64.477 -174.824)" fill="#b8b8b8" stroke="#b8b8b8" stroke-width="1"/>
        <path id="Path_22" data-name="Path 22" d="M396.629,203.083c0-16.245,12.139-28.351,27.566-28.351,15.113,0,27.565,12.105,27.565,28.351s-12.452,28.272-27.565,28.272C408.768,231.355,396.629,219.329,396.629,203.083Zm49.727,0c0-13.219-10.258-23.493-22.161-23.493-11.982,0-22.162,10.273-22.162,23.493s10.18,23.494,22.162,23.494C436.1,226.576,446.357,216.3,446.357,203.083Z" transform="translate(-72.14 -174.732)" fill="#b8b8b8" stroke="#b8b8b8" stroke-width="1"/>
        <path id="Path_23" data-name="Path 23" d="M470.533,211.7V175.788h5.56v36.394c0,8.681,5.4,14.176,13.861,14.176s13.861-5.5,13.861-14.176V175.788h5.56V211.7c0,11.787-7.91,19.83-19.421,19.83S470.533,223.491,470.533,211.7Z" transform="translate(-79.162 -174.832)" fill="#b8b8b8" stroke="#b8b8b8" stroke-width="1"/>
        <path id="Path_24" data-name="Path 24" d="M562.484,225.641v4.938H531.629V175.788h5.56v46.349l-2.819,3.5Z" transform="translate(-84.966 -174.832)" fill="#b8b8b8" stroke="#b8b8b8" stroke-width="1"/>
        <path id="Path_25" data-name="Path 25" d="M621.08,203.183c0,16.007-9.554,27.4-28.27,27.4H580.437V175.788H592.81C611.526,175.788,621.08,187.176,621.08,203.183Zm-5.795,0c0-12.264-6.5-22.457-22.475-22.457h-10.1l3.29,3.265v38.385l-3.29,3.265h10.1C608.786,225.641,615.285,215.447,615.285,203.183Z" transform="translate(-89.604 -174.832)" fill="#b8b8b8" stroke="#b8b8b8" stroke-width="1"/>
        <path id="Path_26" data-name="Path 26" d="M694.5,205.493l17.933-29.7h5.795l-32.969,54.791h-5.873l13.391-22.3L673.75,175.788h6.265L694.5,200.635Z" transform="translate(-98.469 -174.832)" fill="#b8b8b8" stroke="#b8b8b8" stroke-width="1"/>
        <path id="Path_27" data-name="Path 27" d="M727.924,203.083c0-16.245,12.138-28.351,27.565-28.351,15.114,0,27.566,12.105,27.566,28.351s-12.452,28.272-27.566,28.272C740.062,231.355,727.924,219.329,727.924,203.083Zm49.728,0c0-13.219-10.259-23.493-22.162-23.493-11.981,0-22.162,10.273-22.162,23.493s10.181,23.494,22.162,23.494C767.392,226.576,777.651,216.3,777.651,203.083Z" transform="translate(-103.616 -174.732)" fill="#b8b8b8" stroke="#b8b8b8" stroke-width="1"/>
        <path id="Path_28" data-name="Path 28" d="M801.827,211.7V175.788h5.56v36.394c0,8.681,5.4,14.176,13.862,14.176s13.861-5.5,13.861-14.176V175.788h5.56V211.7c0,11.787-7.91,19.83-19.421,19.83S801.827,223.491,801.827,211.7Z" transform="translate(-110.638 -174.832)" fill="#b8b8b8" stroke="#b8b8b8" stroke-width="1"/>
        <path id="Path_29" data-name="Path 29" d="M941.755,203.183c0,16.007-9.554,27.4-28.27,27.4H901.112V175.788h12.373C932.2,175.788,941.755,187.176,941.755,203.183Zm-5.795,0c0-12.264-6.5-22.457-22.475-22.457h-10.1l3.29,3.265v38.385l-3.29,3.265h10.1C929.461,225.641,935.961,215.447,935.961,203.183Z" transform="translate(-120.071 -174.832)" fill="#b8b8b8" stroke="#b8b8b8" stroke-width="1"/>
        <path id="Path_30" data-name="Path 30" d="M958.573,203.083c0-16.245,12.138-28.351,27.566-28.351,15.113,0,27.565,12.105,27.565,28.351s-12.452,28.272-27.565,28.272C970.711,231.355,958.573,219.329,958.573,203.083Zm49.727,0c0-13.219-10.259-23.493-22.161-23.493-11.982,0-22.162,10.273-22.162,23.493s10.18,23.494,22.162,23.494C998.041,226.576,1008.3,216.3,1008.3,203.083Z" transform="translate(-125.53 -174.732)" fill="#b8b8b8" stroke="#b8b8b8" stroke-width="1"/>
        <path id="Path_31" data-name="Path 31" d="M1071.1,203.083c0-16.245,12.138-28.351,27.565-28.351,15.114,0,27.566,12.105,27.566,28.351s-12.452,28.272-27.566,28.272C1083.236,231.355,1071.1,219.329,1071.1,203.083Zm49.727,0c0-13.219-10.259-23.493-22.162-23.493-11.981,0-22.161,10.273-22.161,23.493s10.18,23.494,22.161,23.494C1110.566,226.576,1120.825,216.3,1120.825,203.083Z" transform="translate(-136.221 -174.732)" fill="#b8b8b8" stroke="#b8b8b8" stroke-width="1"/>
        <path id="Path_32" data-name="Path 32" d="M1184.759,215.686l-.235-39.9h5.56v54.791h-5.091l-29.054-41.73-4.072-6.132-.235.637,1.8,7.8.157,39.42h-5.56V175.788h5.091l33.125,48.1.234-.637Z" transform="translate(-143.53 -174.832)" fill="#b8b8b8" stroke="#b8b8b8" stroke-width="1"/>
        <path id="Path_33" data-name="Path 33" d="M1250,185.9l14.018-10.114h4.072v54.791h-5.326V186.3l1.88-4.858-.078-.159-12.217,8.76Z" transform="translate(-153.218 -174.832)" fill="#b8b8b8" stroke="#b8b8b8" stroke-width="1"/>
        <path id="Path_34" data-name="Path 34" d="M1328.943,201.338c0,21.9-10.024,29.545-19.891,30.023-7.674.4-12.216-3.345-14.879-8.044l4.229-2.787c1.722,3.5,4.855,6.451,10.65,6.132,7.048-.4,15.819-8.362,14.8-27.714-2.349,8.52-9.084,11.786-15.271,11.786-10.494,0-17.307-7.088-17.307-17.759,0-11.548,8.536-18.556,18.56-18.158C1320.33,175.216,1328.943,183.579,1328.943,201.338Zm-32.342-8.362c0,7.725,5.326,13.06,12.687,13.06,7.91,0,13.078-6.768,13.078-13.378s-5.326-12.822-12.3-13.14C1302.318,179.119,1296.6,184.375,1296.6,192.976Z" transform="translate(-157.14 -174.739)" fill="#b8b8b8" stroke="#b8b8b8" stroke-width="1"/>
        <path id="Path_35" data-name="Path 35" d="M1390.214,203.083c0-16.245,12.138-28.351,27.566-28.351,15.114,0,27.565,12.105,27.565,28.351s-12.452,28.272-27.565,28.272C1402.353,231.355,1390.214,219.329,1390.214,203.083Zm49.727,0c0-13.219-10.259-23.493-22.161-23.493-11.982,0-22.162,10.273-22.162,23.493s10.18,23.494,22.162,23.494C1429.682,226.576,1439.941,216.3,1439.941,203.083Z" transform="translate(-166.54 -174.732)" fill="#b8b8b8" stroke="#b8b8b8" stroke-width="1"/>
        <path id="Path_36" data-name="Path 36" d="M1464.551,203.091c0-16.166,12.06-28.271,27.566-28.271,12.53,0,22.24,8.362,25.529,20.467h-5.717c-3.053-9.238-10.416-15.689-19.812-15.689-12.061,0-22.162,10.353-22.162,23.493,0,13.22,10.023,23.573,22.162,23.573,9.4,0,16.759-6.371,19.812-15.689h5.717c-3.289,12.185-13,20.467-25.529,20.467C1476.611,231.443,1464.551,219.417,1464.551,203.091Z" transform="translate(-173.603 -174.74)" fill="#b8b8b8" stroke="#b8b8b8" stroke-width="1"/>
        <path id="Path_37" data-name="Path 37" d="M1531.7,175.788h36.1v4.778h-11.355l-5.247-1.035,1.331,3.743v47.3h-5.56V183.354l1.331-3.823-5.168,1.035H1531.7Z" transform="translate(-179.983 -174.832)" fill="#b8b8b8" stroke="#b8b8b8" stroke-width="1"/>
        <path id="Path_38" data-name="Path 38" d="M1619.132,185.9l14.017-10.114h4.073v54.791H1631.9V186.3l1.88-4.858-.079-.159-12.216,8.76Z" transform="translate(-188.289 -174.832)" fill="#b8b8b8" stroke="#b8b8b8" stroke-width="1"/>
        <path id="Path_39" data-name="Path 39" d="M1696.435,201.338c0,21.9-10.024,29.545-19.891,30.023-7.675.4-12.216-3.345-14.879-8.044l4.228-2.787c1.723,3.5,4.856,6.451,10.651,6.132,7.048-.4,15.818-8.362,14.8-27.714-2.348,8.52-9.083,11.786-15.27,11.786-10.494,0-17.307-7.088-17.307-17.759,0-11.548,8.536-18.556,18.56-18.158C1687.82,175.216,1696.435,183.579,1696.435,201.338Zm-32.343-8.362c0,7.725,5.325,13.06,12.687,13.06,7.909,0,13.077-6.768,13.077-13.378s-5.325-12.822-12.294-13.14C1669.809,179.119,1664.092,184.375,1664.092,192.976Z" transform="translate(-192.055 -174.739)" fill="#b8b8b8" stroke="#b8b8b8" stroke-width="1"/>
        <path id="Path_40" data-name="Path 40" d="M1755.713,201.338c0,21.9-10.024,29.545-19.891,30.023-7.674.4-12.217-3.345-14.879-8.044l4.229-2.787c1.723,3.5,4.855,6.451,10.65,6.132,7.048-.4,15.819-8.362,14.8-27.714-2.349,8.52-9.084,11.786-15.271,11.786-10.493,0-17.307-7.088-17.307-17.759,0-11.548,8.536-18.556,18.56-18.158C1747.1,175.216,1755.713,183.579,1755.713,201.338Zm-32.343-8.362c0,7.725,5.326,13.06,12.687,13.06,7.909,0,13.078-6.768,13.078-13.378s-5.326-12.822-12.3-13.14C1729.087,179.119,1723.37,184.375,1723.37,192.976Z" transform="translate(-197.687 -174.739)" fill="#b8b8b8" stroke="#b8b8b8" stroke-width="1"/>
        <path id="Path_41" data-name="Path 41" d="M1777.323,204.84c0-21.9,10.024-29.545,19.892-30.023,7.674-.4,12.216,3.345,14.878,8.044l-4.228,2.787c-1.723-3.5-4.855-6.451-10.65-6.132-7.049.4-15.819,8.362-14.8,27.714,2.349-8.52,9.084-11.786,15.271-11.786,10.493,0,17.306,7.088,17.306,17.759,0,11.548-8.536,18.556-18.56,18.158C1785.938,230.962,1777.323,222.6,1777.323,204.84Zm32.343,8.362c0-7.725-5.325-13.06-12.686-13.06-7.91,0-13.078,6.768-13.078,13.378s5.325,12.822,12.295,13.14C1803.949,227.059,1809.666,221.8,1809.666,213.2Z" transform="translate(-203.319 -174.737)" fill="#b8b8b8" stroke="#b8b8b8" stroke-width="1"/>
        <path id="Path_42" data-name="Path 42" d="M1862.882,188.916c0-5.575-4.151-9.4-10.025-9.4-7.361,0-11.277,5.177-11.277,12.424h-5.325c0-9.477,5.639-17.122,16.6-17.122,9.006,0,15.584,5.256,15.584,13.857,0,13.061-13.782,13.538-13.782,23.254v2.947h-5.326v-2.23C1849.333,199.588,1862.882,199.269,1862.882,188.916Zm-14.019,35.04h6.187v6.53h-6.187Z" transform="translate(-208.918 -174.74)" fill="#b8b8b8" stroke="#b8b8b8" stroke-width="1"/>
      </g>
    </g>
    <line id="Line_81" data-name="Line 81" x2="1858.568" transform="translate(30.812 256.818)" fill="none" stroke="#b8b8b8" stroke-miterlimit="10" stroke-width="1"/>
    <g id="Group_293" data-name="Group 293">
      <path id="Path_43" data-name="Path 43" d="M56.868,77.064l2.691.792A104.712,104.712,0,0,1,54.107,89.7a103.184,103.184,0,0,1-6.691,10.836,82.714,82.714,0,0,1-7.4,9.072,3.618,3.618,0,0,0-.46-.792q-.319-.432-.673-.936a6.55,6.55,0,0,0-.637-.792,63.991,63.991,0,0,0,7.186-8.46A93.648,93.648,0,0,0,51.841,88.3,84.28,84.28,0,0,0,56.868,77.064Zm-7.717,17.5L51.7,91.9l.141.072v49.824h-2.69ZM70.463,77.208l2.761.576q-1.273,5.76-3.044,11.232a94.6,94.6,0,0,1-3.965,10.26,51.1,51.1,0,0,1-4.886,8.532c-.141-.144-.343-.336-.6-.576a8.246,8.246,0,0,0-.85-.684q-.46-.324-.814-.54a47.339,47.339,0,0,0,4.78-8.136,79.727,79.727,0,0,0,3.823-9.9A110.948,110.948,0,0,0,70.463,77.208Zm-.566,29.3,2.761.576a88.413,88.413,0,0,1-2.9,9.4A76.182,76.182,0,0,1,66,125.016a54.2,54.2,0,0,1-4.319,7.056q-.283-.216-.743-.54c-.308-.216-.614-.42-.921-.612a5.511,5.511,0,0,0-.814-.432,47.791,47.791,0,0,0,6.266-10.764A83.4,83.4,0,0,0,69.9,106.512ZM68.055,91.464h34.058V94.2H66.923Zm13.241.864h2.761v45.5a5.034,5.034,0,0,1-.46,2.448A2.686,2.686,0,0,1,82,141.432a12.484,12.484,0,0,1-3.151.468q-2.089.108-5.345.108a12.151,12.151,0,0,0-.461-1.4,12.321,12.321,0,0,0-.672-1.476q2.762.07,4.92.072t2.868-.072a1.231,1.231,0,0,0,.885-.252,1.413,1.413,0,0,0,.248-.972Zm9.984,14.616,2.478-.792q2.193,3.888,4.142,8.316t3.434,8.748a65.121,65.121,0,0,1,2.195,7.7l-2.62.864a67.176,67.176,0,0,0-2.16-7.668q-1.452-4.284-3.4-8.784T91.28,106.944Zm9.841-15.48h.425l.637-.144,1.771.576q-.709,3.6-1.558,7.6t-1.629,6.66l-2.336-.5q.354-1.728.85-4.032t.991-4.824q.493-2.52.849-4.824Z" fill="#b8b8b8" stroke="#b8b8b8" stroke-width="2"/>
      <path id="Path_44" data-name="Path 44" d="M148.419,76.776l2.478,1.008a41.32,41.32,0,0,1-8.85,8.748,72.478,72.478,0,0,1-11.471,6.912,111.06,111.06,0,0,1-12.461,5.148l-.531-.72c-.213-.288-.45-.576-.708-.864a6.818,6.818,0,0,0-.744-.72A88.306,88.306,0,0,0,128.7,91.572a68.335,68.335,0,0,0,11.258-6.552A37.867,37.867,0,0,0,148.419,76.776ZM125.054,97.368H171.36V114.5H125.054Zm2.548,2.448v12.24h41.209V99.816Zm1.841,18.936h38.518v22.9h-2.69V121.2H132.205v20.664h-2.762Zm1.77,8.856h35.261v2.52H131.213Zm.071,9h35.261v2.448H131.284Zm2.054-34.2,2.2-1.08a32.529,32.529,0,0,1,3.186,4.356,22.9,22.9,0,0,1,2.124,4.212l-2.337,1.224a20.236,20.236,0,0,0-2.053-4.248A40.849,40.849,0,0,0,133.338,102.408Zm2.832-12.1h24.5V92.76h-24.5Zm10.621,8.064h2.619v14.9h-2.619Zm2.761-19.8a34.57,34.57,0,0,0,6.089,5.472,73.339,73.339,0,0,0,7.789,4.86,74.355,74.355,0,0,0,8.638,4,90.667,90.667,0,0,0,8.638,2.88,5.278,5.278,0,0,0-1.027,1.044,6.3,6.3,0,0,0-.814,1.332,77.194,77.194,0,0,1-8.638-3.132,89.774,89.774,0,0,1-8.745-4.32,71.665,71.665,0,0,1-7.965-5.184,46.038,46.038,0,0,1-6.372-5.724Zm10.975,22.464,2.549,1.3q-1.275,2.3-2.726,4.716t-2.656,4.14l-2.053-1.08q1.132-1.872,2.585-4.5T160.527,101.04Z" fill="#b8b8b8" stroke="#b8b8b8" stroke-width="2"/>
      <path id="Path_45" data-name="Path 45" d="M191.681,91.9q4.035-.144,9.346-.4l11.329-.54q6.017-.288,12.178-.648l-.071,2.592q-5.877.36-11.718.756t-11.116.684q-5.275.288-9.523.5ZM218.3,86.928h2.691V95.5q0,4.248-.425,8.964a50.182,50.182,0,0,1-1.876,9.648,41.733,41.733,0,0,1-4.39,9.792,44.571,44.571,0,0,1-7.895,9.468,61.062,61.062,0,0,1-12.532,8.712,2.9,2.9,0,0,0-.531-.756l-.708-.72a3.949,3.949,0,0,0-.744-.612,61.739,61.739,0,0,0,12.249-8.388,40.244,40.244,0,0,0,11.966-18.468,45.121,45.121,0,0,0,1.806-9.108q.389-4.428.389-8.532Zm-22.445,29.52q1.133-3.672,2.3-8.532t2.3-10.26q1.132-5.4,2.054-10.728t1.416-9.936l2.761.216q-.567,4.752-1.522,10.152t-2.053,10.8q-1.1,5.4-2.3,10.26t-2.266,8.532Zm0,0,1.77-1.944q3.327,2.16,6.762,4.752t6.691,5.328q3.257,2.736,6.019,5.292a56.829,56.829,0,0,1,4.6,4.716l-1.912,2.3q-1.842-2.16-4.567-4.824t-5.947-5.436q-3.224-2.772-6.656-5.4T195.858,116.448Zm32-31.608h24V139.2h-2.691V87.648H230.553V140.28h-2.691ZM228.924,132h21.6v2.736h-21.6Z" fill="#b8b8b8" stroke="#b8b8b8" stroke-width="2"/>
      <path id="Path_46" data-name="Path 46" d="M284.931,77.064l2.69.648a106.187,106.187,0,0,1-4.779,11.736,100.782,100.782,0,0,1-5.948,10.728,85.554,85.554,0,0,1-6.62,9.072q-.213-.288-.531-.756t-.673-.972a2.524,2.524,0,0,0-.708-.72,66.022,66.022,0,0,0,6.479-8.5,85.228,85.228,0,0,0,5.629-10.188A108.159,108.159,0,0,0,284.931,77.064ZM278.063,94.7l2.619-2.736.142.072v49.9h-2.761ZM288.4,84.48h44.4v2.736H288.4Zm3.115,14.76h2.62V128.4h-2.62Zm1.346,0h19.754v23.9H292.861v-2.736h17.064V101.9H292.861Zm31.225-13.752h2.69V136.68a5.808,5.808,0,0,1-.672,3.2,3.93,3.93,0,0,1-2.372,1.4,27.956,27.956,0,0,1-5.169.4q-3.541.034-8.922.036a6,6,0,0,0-.389-1.476,10.251,10.251,0,0,0-.743-1.548q3.255.07,6.018.108t4.744,0q1.982-.037,2.832-.036a2.529,2.529,0,0,0,1.593-.468,2.258,2.258,0,0,0,.39-1.548Z" fill="#b8b8b8" stroke="#b8b8b8" stroke-width="2"/>
      <path id="Path_47" data-name="Path 47" d="M350.921,84.7h2.761v19.872q0,4.1-.248,8.892t-.955,9.792a76.69,76.69,0,0,1-2.054,9.828,43.1,43.1,0,0,1-3.611,9,2.013,2.013,0,0,0-.673-.54c-.307-.169-.6-.349-.885-.54a2.13,2.13,0,0,0-.849-.36,38.407,38.407,0,0,0,3.54-8.676,75.1,75.1,0,0,0,1.947-9.432,93.621,93.621,0,0,0,.85-9.36q.176-4.572.177-8.6Zm1.274,0h55.653V87.5H352.2Zm45.882,33.336h.637l.5-.216,1.77,1.152a30.91,30.91,0,0,1-7.9,9.324,47.422,47.422,0,0,1-11.116,6.552,80.7,80.7,0,0,1-13.1,4.248,130.234,130.234,0,0,1-13.984,2.484,4.241,4.241,0,0,0-.425-1.224q-.355-.722-.708-1.3a113.742,113.742,0,0,0,13.453-2.124,78.338,78.338,0,0,0,12.745-3.924,46.27,46.27,0,0,0,10.727-6.048,27.673,27.673,0,0,0,7.4-8.352ZM355.665,97.008H407V99.6H355.665Zm1.345,21.024h41.846v2.592H357.01Zm10.833,2.52a32.988,32.988,0,0,0,9.771,9.252,56.768,56.768,0,0,0,14.126,6.336,95.055,95.055,0,0,0,16.958,3.42,5.27,5.27,0,0,0-.6.756c-.213.311-.414.612-.6.9a4.368,4.368,0,0,0-.425.792,98.867,98.867,0,0,1-17.029-3.816,61.1,61.1,0,0,1-14.408-6.7,34.31,34.31,0,0,1-10.2-9.864Zm.637-31.032h2.762v19.944h20.6V89.52h2.69v22.536H368.48Zm6.8-12.168,2.62-.72q1.344,2.016,2.69,4.5a37.241,37.241,0,0,1,1.983,4.14l-2.762,1.008A44.678,44.678,0,0,0,377.9,82,48.989,48.989,0,0,0,375.278,77.352Z" fill="#b8b8b8" stroke="#b8b8b8" stroke-width="2"/>
      <path id="Path_48" data-name="Path 48" d="M434.258,111.624h.708l.567-.072,1.557.576a57.909,57.909,0,0,1-5.77,18.4,34.5,34.5,0,0,1-9.382,11.412,6.586,6.586,0,0,0-.6-.684q-.39-.4-.743-.792a3.239,3.239,0,0,0-.708-.612,31.49,31.49,0,0,0,9.063-10.692,50.319,50.319,0,0,0,5.31-16.884Zm-12.674,3.528a3.779,3.779,0,0,0-.354-1.008q-.284-.576-.531-1.188a7.736,7.736,0,0,0-.46-.972,8.74,8.74,0,0,0,1.522-.648,6.352,6.352,0,0,0,1.664-1.368,29.612,29.612,0,0,0,2.407-2.988q1.557-2.124,3.364-4.68t3.363-4.932q1.556-2.376,2.407-3.744V93.48l1.133-.5,2.2,1.08q-1.275,1.8-3.045,4.284t-3.717,5.184q-1.949,2.7-3.859,5.148t-3.4,4.176a13.017,13.017,0,0,0-1.381.792,6.011,6.011,0,0,0-.921.756A1.12,1.12,0,0,0,421.584,115.152Zm-.85-21.816h15.648v2.592H420.734Zm.85,21.816v-2.52l2.124-1.008h11.825v2.592H425.62a10.483,10.483,0,0,0-2.514.288A3.435,3.435,0,0,0,421.584,115.152ZM424.133,78l2.124-1.152q2.337,2.736,4.673,5.9a43.834,43.834,0,0,1,3.541,5.472L432.2,89.592q-.85-1.512-2.195-3.528t-2.9-4.14Q425.548,79.8,424.133,78Zm7.859,49.68a16.051,16.051,0,0,0,6.55,6.876,27.78,27.78,0,0,0,10.019,2.988,111.923,111.923,0,0,0,13.452.72q3.681,0,7.824-.072t8.178-.216q4.036-.146,7.364-.5a4.811,4.811,0,0,0-.389.864c-.119.335-.225.684-.319,1.044s-.166.684-.212.972q-3.045.143-6.868.288t-7.824.18q-4,.034-7.683.036-6.3,0-11.293-.468a42.286,42.286,0,0,1-8.921-1.728,20.568,20.568,0,0,1-6.8-3.6,19.879,19.879,0,0,1-4.921-6.228Zm9.842-25.632h38.447v2.52H444.525v28.584h-2.691ZM447.5,79.584h28.109V103.7h-2.62V82.1h-22.8v21.6H447.5Zm4.956,30.888h2.478v18.144h-2.478Zm1.345,0h16.922v14.76H453.8v-2.448h14.374v-9.792H453.8Zm5.594-21.24h15.081V91.68h-12.6v11.736h-2.478Zm19.259,12.816h2.69v27.288a4.914,4.914,0,0,1-.354,2.052A2.283,2.283,0,0,1,479.5,132.5a14.911,14.911,0,0,1-3.115.4q-2.124.108-5.452.108a5.473,5.473,0,0,0-.354-1.3,8.319,8.319,0,0,0-.637-1.3q2.83.072,4.885.108a26.581,26.581,0,0,0,2.691-.036c.754-.048,1.133-.408,1.133-1.08Z" fill="#b8b8b8" stroke="#b8b8b8" stroke-width="2"/>
      <path id="Path_49" data-name="Path 49" d="M500.036,136.752v-3.024h11.753V91.464h-9.063V89.088a32.5,32.5,0,0,0,5.488-1.332,22.616,22.616,0,0,0,4.071-1.836h2.761v47.808h10.975v3.024Z" fill="#b8b8b8" stroke="#b8b8b8" stroke-width="2"/>
      <path id="Path_50" data-name="Path 50" d="M551.015,137.688a13.057,13.057,0,0,1-6.054-1.332,13.97,13.97,0,0,1-4.425-3.564l1.983-2.3a11.131,11.131,0,0,0,3.929,3.132,10.819,10.819,0,0,0,4.638,1.044,12.47,12.47,0,0,0,7.364-2.412q3.4-2.412,5.487-8.064t2.089-15.228a38.717,38.717,0,0,0-1.416-11.016,16.169,16.169,0,0,0-4.284-7.416,10.441,10.441,0,0,0-7.4-2.664,8.338,8.338,0,0,0-5.133,1.728,11.9,11.9,0,0,0-3.647,4.644,15.548,15.548,0,0,0-1.345,6.588,18.891,18.891,0,0,0,1.1,6.624,9.319,9.319,0,0,0,3.541,4.608,10.942,10.942,0,0,0,6.266,1.656,12.258,12.258,0,0,0,6.054-1.908,21.822,21.822,0,0,0,6.478-6.372l.071,3.672a20.6,20.6,0,0,1-3.859,3.888,19.272,19.272,0,0,1-4.461,2.592,12.392,12.392,0,0,1-4.708.936,14.614,14.614,0,0,1-7.435-1.8,11.767,11.767,0,0,1-4.779-5.292,19.91,19.91,0,0,1-1.664-8.6,17.5,17.5,0,0,1,1.876-8.208A14.5,14.5,0,0,1,546.271,87a12.266,12.266,0,0,1,6.8-2.016,13.871,13.871,0,0,1,11.9,6.228,23.056,23.056,0,0,1,3.257,7.488,41.682,41.682,0,0,1,1.133,10.26,51.374,51.374,0,0,1-1.523,13.5,25.966,25.966,0,0,1-4.107,8.892,15.343,15.343,0,0,1-5.876,4.86A16.547,16.547,0,0,1,551.015,137.688Z" fill="#b8b8b8" stroke="#b8b8b8" stroke-width="2"/>
      <path id="Path_51" data-name="Path 51" d="M593.71,137.688a13.05,13.05,0,0,1-6.053-1.332,13.963,13.963,0,0,1-4.426-3.564l1.983-2.3a11.148,11.148,0,0,0,3.929,3.132,10.819,10.819,0,0,0,4.638,1.044,12.47,12.47,0,0,0,7.364-2.412q3.4-2.412,5.487-8.064t2.089-15.228A38.68,38.68,0,0,0,607.3,97.944a16.169,16.169,0,0,0-4.284-7.416,10.441,10.441,0,0,0-7.4-2.664,8.34,8.34,0,0,0-5.133,1.728,11.9,11.9,0,0,0-3.647,4.644,15.548,15.548,0,0,0-1.345,6.588,18.869,18.869,0,0,0,1.1,6.624,9.317,9.317,0,0,0,3.54,4.608,10.942,10.942,0,0,0,6.266,1.656,12.258,12.258,0,0,0,6.054-1.908,21.81,21.81,0,0,0,6.478-6.372L609,109.1a20.572,20.572,0,0,1-3.859,3.888,19.286,19.286,0,0,1-4.46,2.592,12.4,12.4,0,0,1-4.709.936,14.608,14.608,0,0,1-7.434-1.8,11.763,11.763,0,0,1-4.78-5.292,19.925,19.925,0,0,1-1.664-8.6,17.484,17.484,0,0,1,1.877-8.208A14.5,14.5,0,0,1,588.966,87a12.267,12.267,0,0,1,6.8-2.016,13.868,13.868,0,0,1,11.9,6.228,23.057,23.057,0,0,1,3.257,7.488,41.682,41.682,0,0,1,1.133,10.26,51.374,51.374,0,0,1-1.523,13.5,25.966,25.966,0,0,1-4.106,8.892,15.353,15.353,0,0,1-5.877,4.86A16.547,16.547,0,0,1,593.71,137.688Z" fill="#b8b8b8" stroke="#b8b8b8" stroke-width="2"/>
      <path id="Path_52" data-name="Path 52" d="M641.858,137.688a13.872,13.872,0,0,1-11.9-6.228,23.017,23.017,0,0,1-3.257-7.524,41.742,41.742,0,0,1-1.132-10.224,52.473,52.473,0,0,1,1.486-13.536,25.537,25.537,0,0,1,4.036-8.82,15.435,15.435,0,0,1,5.877-4.86,16.592,16.592,0,0,1,6.939-1.512,12.549,12.549,0,0,1,6.018,1.368,16.021,16.021,0,0,1,4.461,3.528l-2.053,2.232a10.208,10.208,0,0,0-3.788-3.06,10.977,10.977,0,0,0-4.709-1.044,12.468,12.468,0,0,0-7.364,2.412q-3.4,2.412-5.452,8.028t-2.053,15.264a39.205,39.205,0,0,0,1.381,10.98,15.746,15.746,0,0,0,4.284,7.38A10.467,10.467,0,0,0,642,134.736a8.446,8.446,0,0,0,5.2-1.728,11.914,11.914,0,0,0,3.647-4.644,15.386,15.386,0,0,0,1.345-6.516,17.792,17.792,0,0,0-1.168-6.66,9.915,9.915,0,0,0-3.54-4.572,10.741,10.741,0,0,0-6.266-1.656,12.615,12.615,0,0,0-6.09,1.872,21.157,21.157,0,0,0-6.514,6.336v-3.6a22.485,22.485,0,0,1,3.859-3.96,17.707,17.707,0,0,1,4.425-2.592,12.489,12.489,0,0,1,4.674-.936,14.766,14.766,0,0,1,7.505,1.8,11.778,11.778,0,0,1,4.779,5.292,20.116,20.116,0,0,1,1.664,8.676,17.014,17.014,0,0,1-1.912,8.172,15.252,15.252,0,0,1-4.992,5.616A11.941,11.941,0,0,1,641.858,137.688Z" fill="#b8b8b8" stroke="#b8b8b8" stroke-width="2"/>
      <path id="Path_53" data-name="Path 53" d="M667.914,121.632h63.37v2.736h-63.37ZM685.4,76.56l2.761.72a85.283,85.283,0,0,1-4.779,10.188,79.355,79.355,0,0,1-5.877,9.144,56.387,56.387,0,0,1-6.62,7.452q-.284-.216-.709-.576t-.885-.684a3.511,3.511,0,0,0-.885-.468,52.718,52.718,0,0,0,6.762-7.2,64.91,64.91,0,0,0,5.771-8.82A73.73,73.73,0,0,0,685.4,76.56ZM680.022,101.9h46.872v2.664H682.712v18.576h-2.69Zm2.265-15.768h46.165v2.736H680.871Zm19.259,1.44h2.832v54.432h-2.832Z" fill="#b8b8b8" stroke="#b8b8b8" stroke-width="2"/>
      <path id="Path_54" data-name="Path 54" d="M746.932,136.752v-3.024h11.754V91.464h-9.063V89.088a32.51,32.51,0,0,0,5.487-1.332,22.62,22.62,0,0,0,4.071-1.836h2.762v47.808h10.975v3.024Z" fill="#b8b8b8" stroke="#b8b8b8" stroke-width="2"/>
      <path id="Path_55" data-name="Path 55" d="M801.735,137.688a11.51,11.51,0,0,1-8.143-3.1,19.5,19.5,0,0,1-5.062-9,51.612,51.612,0,0,1-1.735-14.4,50.834,50.834,0,0,1,1.735-14.328,18.959,18.959,0,0,1,5.062-8.856,12.379,12.379,0,0,1,16.214,0,18.735,18.735,0,0,1,5.028,8.856,51.889,51.889,0,0,1,1.7,14.328,52.684,52.684,0,0,1-1.7,14.4,19.266,19.266,0,0,1-5.028,9A11.421,11.421,0,0,1,801.735,137.688Zm0-2.952a8.176,8.176,0,0,0,6.054-2.664,17.922,17.922,0,0,0,4-7.92,50.607,50.607,0,0,0,1.416-12.96,49.669,49.669,0,0,0-1.416-12.924,17.294,17.294,0,0,0-4-7.74,8.283,8.283,0,0,0-6.054-2.592,8.391,8.391,0,0,0-6.089,2.592,17.3,17.3,0,0,0-4.072,7.74,48.5,48.5,0,0,0-1.451,12.924,49.415,49.415,0,0,0,1.451,12.96,17.924,17.924,0,0,0,4.072,7.92A8.281,8.281,0,0,0,801.735,134.736Z" fill="#b8b8b8" stroke="#b8b8b8" stroke-width="2"/>
      <path id="Path_56" data-name="Path 56" d="M841.456,80.952h2.762V101.9q0,4.68-.5,9.9a66.774,66.774,0,0,1-1.912,10.62,45.184,45.184,0,0,1-4.177,10.4,36.1,36.1,0,0,1-7.435,9.252,4.786,4.786,0,0,0-.566-.756q-.355-.4-.744-.756a4.75,4.75,0,0,0-.743-.576,35.091,35.091,0,0,0,7.187-8.856,41.382,41.382,0,0,0,3.965-9.792,60.209,60.209,0,0,0,1.735-10.008q.425-4.968.424-9.5Zm.5,35.136H880.9v2.664H841.952Zm.708-17.712h38.518v2.736H842.66Zm.071-17.424H880.9v2.736H842.731Zm37.1,0h2.832V136.32a5.79,5.79,0,0,1-.708,3.2A3.9,3.9,0,0,1,879.62,141a30.615,30.615,0,0,1-5.2.432q-3.506.07-9.311.072a3.926,3.926,0,0,0-.319-.972c-.166-.36-.318-.709-.46-1.044a5.808,5.808,0,0,0-.495-.936q3.327.07,6.16.072t4.85-.036q2.017-.037,2.8-.036a2.668,2.668,0,0,0,1.735-.54,2.408,2.408,0,0,0,.461-1.692Z" fill="#b8b8b8" stroke="#b8b8b8" stroke-width="2"/>
      <path id="Path_57" data-name="Path 57" d="M908.438,136.752v-3.024h11.753V91.464h-9.063V89.088a32.523,32.523,0,0,0,5.488-1.332,22.617,22.617,0,0,0,4.071-1.836h2.761v47.808h10.975v3.024Z" fill="#b8b8b8" stroke="#b8b8b8" stroke-width="2"/>
      <path id="Path_58" data-name="Path 58" d="M959.417,137.688a13.057,13.057,0,0,1-6.054-1.332,13.971,13.971,0,0,1-4.425-3.564l1.983-2.3a11.139,11.139,0,0,0,3.929,3.132,10.819,10.819,0,0,0,4.638,1.044,12.47,12.47,0,0,0,7.364-2.412q3.4-2.412,5.487-8.064t2.089-15.228a38.717,38.717,0,0,0-1.416-11.016,16.169,16.169,0,0,0-4.284-7.416,10.441,10.441,0,0,0-7.4-2.664,8.338,8.338,0,0,0-5.133,1.728,11.9,11.9,0,0,0-3.647,4.644,15.547,15.547,0,0,0-1.345,6.588,18.89,18.89,0,0,0,1.1,6.624,9.325,9.325,0,0,0,3.541,4.608,10.942,10.942,0,0,0,6.266,1.656,12.258,12.258,0,0,0,6.054-1.908,21.823,21.823,0,0,0,6.478-6.372l.071,3.672a20.571,20.571,0,0,1-3.859,3.888,19.272,19.272,0,0,1-4.461,2.592,12.392,12.392,0,0,1-4.708.936,14.614,14.614,0,0,1-7.435-1.8,11.767,11.767,0,0,1-4.779-5.292,19.911,19.911,0,0,1-1.664-8.6,17.5,17.5,0,0,1,1.876-8.208A14.508,14.508,0,0,1,954.673,87a12.267,12.267,0,0,1,6.8-2.016,13.871,13.871,0,0,1,11.9,6.228,23.057,23.057,0,0,1,3.257,7.488,41.679,41.679,0,0,1,1.133,10.26,51.374,51.374,0,0,1-1.523,13.5,25.966,25.966,0,0,1-4.106,8.892,15.352,15.352,0,0,1-5.877,4.86A16.547,16.547,0,0,1,959.417,137.688Z" fill="#b8b8b8" stroke="#b8b8b8" stroke-width="2"/>
      <path id="Path_59" data-name="Path 59" d="M1000.909,82.1h44.04V140.64h-2.832V84.984h-38.376v56.232h-2.832Zm1.628,51.624h41v2.808h-41Zm.142-26.064h40.642v2.808h-40.642Z" fill="#b8b8b8" stroke="#b8b8b8" stroke-width="2"/>
      <path id="Path_60" data-name="Path 60" d="M1086.512,120.264a10.556,10.556,0,0,1,.107-5.652,13.163,13.163,0,0,1,2.584-4.536,33.322,33.322,0,0,1,3.93-3.852q2.158-1.8,4.106-3.528a18.5,18.5,0,0,0,3.222-3.672,7.474,7.474,0,0,0,1.274-4.176,10.472,10.472,0,0,0-1.239-5.04,8.663,8.663,0,0,0-3.894-3.636,15.617,15.617,0,0,0-6.974-1.332,18.738,18.738,0,0,0-7.789,1.728,22.946,22.946,0,0,0-7.293,5.472l-2.2-2.16a33.278,33.278,0,0,1,7.683-5.8,20.554,20.554,0,0,1,9.877-2.2,18.447,18.447,0,0,1,8.284,1.692,12.663,12.663,0,0,1,5.2,4.536,11.893,11.893,0,0,1,1.806,6.516,9.582,9.582,0,0,1-1.31,5,18.975,18.975,0,0,1-3.292,4.068q-1.983,1.872-4.143,3.636a42.219,42.219,0,0,0-3.965,3.672,12.587,12.587,0,0,0-2.655,4.1,9.277,9.277,0,0,0-.283,5.148Zm1.7,16.56a3.259,3.259,0,0,1-2.2-.864,3.159,3.159,0,0,1-.992-2.52,3.509,3.509,0,0,1,.992-2.628,3.069,3.069,0,0,1,2.2-.972,3.032,3.032,0,0,1,2.23.972,3.586,3.586,0,0,1,.956,2.628,3.125,3.125,0,0,1-3.186,3.384Z" fill="#b8b8b8" stroke="#b8b8b8" stroke-width="2"/>
    </g>
  </g>
</svg>
